<svg width="199" height="40" viewBox="0 0 199 40" fill="none" xmlns="http://www.w3.org/2000/svg">
<path d="M19.0489 2.92705C19.3483 2.00574 20.6517 2.00574 20.9511 2.92705L24.2658 13.1287C24.3996 13.5407 24.7836 13.8197 25.2168 13.8197H35.9434C36.9122 13.8197 37.3149 15.0593 36.5312 15.6287L27.8532 21.9336C27.5027 22.1883 27.3561 22.6396 27.4899 23.0517L30.8046 33.2533C31.104 34.1746 30.0495 34.9407 29.2658 34.3713L20.5878 28.0664C20.2373 27.8117 19.7627 27.8117 19.4122 28.0664L10.7342 34.3713C9.95048 34.9407 8.896 34.1746 9.19535 33.2533L12.5101 23.0517C12.6439 22.6396 12.4973 22.1883 12.1468 21.9336L3.46877 15.6287C2.68505 15.0593 3.08783 13.8197 4.05655 13.8197H14.7832C15.2164 13.8197 15.6004 13.5407 15.7342 13.1287L19.0489 2.92705Z" fill="#F5BE32"/>
<path d="M59.0489 2.92705C59.3483 2.00574 60.6517 2.00574 60.9511 2.92705L64.2658 13.1287C64.3996 13.5407 64.7836 13.8197 65.2168 13.8197H75.9434C76.9122 13.8197 77.3149 15.0593 76.5312 15.6287L67.8532 21.9336C67.5027 22.1883 67.3561 22.6396 67.4899 23.0517L70.8046 33.2533C71.104 34.1746 70.0495 34.9407 69.2658 34.3713L60.5878 28.0664C60.2373 27.8117 59.7627 27.8117 59.4122 28.0664L50.7342 34.3713C49.9505 34.9407 48.896 34.1746 49.1954 33.2533L52.5101 23.0517C52.6439 22.6396 52.4973 22.1883 52.1468 21.9336L43.4688 15.6287C42.6851 15.0593 43.0878 13.8197 44.0566 13.8197H54.7832C55.2164 13.8197 55.6004 13.5407 55.7342 13.1287L59.0489 2.92705Z" fill="#F5BE32"/>
<path d="M178.546 3.08203C178.696 2.62138 179.347 2.62138 179.497 3.08203L182.812 13.2832C183.012 13.9012 183.588 14.3193 184.238 14.3193H194.965C195.449 14.3196 195.651 14.94 195.259 15.2246L186.58 21.5293C186.055 21.9113 185.835 22.5882 186.035 23.2061L189.351 33.4082C189.5 33.8686 188.973 34.2512 188.581 33.9668L179.902 27.6621C179.377 27.2803 178.665 27.2802 178.14 27.6621L169.462 33.9668C169.07 34.2514 168.543 33.8687 168.692 33.4082L172.007 23.2061C172.208 22.5881 171.987 21.9113 171.462 21.5293L162.784 15.2246C162.392 14.9399 162.594 14.3193 163.078 14.3193H173.805C174.454 14.3192 175.03 13.901 175.23 13.2832L178.546 3.08203Z" stroke="#F5BE32"/>
<path d="M99.5459 3.08203C99.6956 2.62138 100.347 2.62138 100.497 3.08203L103.812 13.2832C104.012 13.9012 104.588 14.3193 105.238 14.3193H115.965C116.449 14.3196 116.651 14.94 116.259 15.2246L107.58 21.5293C107.055 21.9113 106.835 22.5882 107.035 23.2061L110.351 33.4082C110.5 33.8686 109.973 34.2512 109.581 33.9668L100.902 27.6621C100.377 27.2803 99.6653 27.2802 99.1396 27.6621L90.4619 33.9668C90.0701 34.2514 89.543 33.8687 89.6924 33.4082L93.0068 23.2061C93.2075 22.5881 92.9875 21.9113 92.4619 21.5293L83.7842 15.2246C83.3923 14.9399 83.5938 14.3193 84.0781 14.3193H94.8047C95.4543 14.3192 96.0297 13.901 96.2305 13.2832L99.5459 3.08203Z" stroke="#F5BE32"/>
<path d="M138.546 3.08203C138.696 2.62138 139.347 2.62138 139.497 3.08203L142.812 13.2832C143.012 13.9012 143.588 14.3193 144.238 14.3193H154.965C155.449 14.3196 155.651 14.94 155.259 15.2246L146.58 21.5293C146.055 21.9113 145.835 22.5882 146.035 23.2061L149.351 33.4082C149.5 33.8686 148.973 34.2512 148.581 33.9668L139.902 27.6621C139.377 27.2803 138.665 27.2802 138.14 27.6621L129.462 33.9668C129.07 34.2514 128.543 33.8687 128.692 33.4082L132.007 23.2061C132.208 22.5881 131.987 21.9113 131.462 21.5293L122.784 15.2246C122.392 14.9399 122.594 14.3193 123.078 14.3193H133.805C134.454 14.3192 135.03 13.901 135.23 13.2832L138.546 3.08203Z" stroke="#F5BE32"/>
</svg>
