<svg width="200" height="40" viewBox="0 0 200 40" fill="none" xmlns="http://www.w3.org/2000/svg">
<path d="M19.0489 2.92705C19.3483 2.00574 20.6517 2.00574 20.9511 2.92705L24.2658 13.1287C24.3996 13.5407 24.7836 13.8197 25.2168 13.8197H35.9434C36.9122 13.8197 37.3149 15.0593 36.5312 15.6287L27.8532 21.9336C27.5027 22.1883 27.3561 22.6396 27.4899 23.0517L30.8046 33.2533C31.104 34.1746 30.0495 34.9407 29.2658 34.3713L20.5878 28.0664C20.2373 27.8117 19.7627 27.8117 19.4122 28.0664L10.7342 34.3713C9.95048 34.9407 8.896 34.1746 9.19535 33.2533L12.5101 23.0517C12.6439 22.6396 12.4973 22.1883 12.1468 21.9336L3.46877 15.6287C2.68505 15.0593 3.08783 13.8197 4.05655 13.8197H14.7832C15.2164 13.8197 15.6004 13.5407 15.7342 13.1287L19.0489 2.92705Z" fill="#F5BE32"/>
<path d="M59.0489 2.92705C59.3483 2.00574 60.6517 2.00574 60.9511 2.92705L64.2658 13.1287C64.3996 13.5407 64.7836 13.8197 65.2168 13.8197H75.9434C76.9122 13.8197 77.3149 15.0593 76.5312 15.6287L67.8532 21.9336C67.5027 22.1883 67.3561 22.6396 67.4899 23.0517L70.8046 33.2533C71.104 34.1746 70.0495 34.9407 69.2658 34.3713L60.5878 28.0664C60.2373 27.8117 59.7627 27.8117 59.4122 28.0664L50.7342 34.3713C49.9505 34.9407 48.896 34.1746 49.1954 33.2533L52.5101 23.0517C52.6439 22.6396 52.4973 22.1883 52.1468 21.9336L43.4688 15.6287C42.6851 15.0593 43.0878 13.8197 44.0566 13.8197H54.7832C55.2164 13.8197 55.6004 13.5407 55.7342 13.1287L59.0489 2.92705Z" fill="#F5BE32"/>
<path d="M99.0489 2.92705C99.3483 2.00574 100.652 2.00574 100.951 2.92705L104.266 13.1287C104.4 13.5407 104.784 13.8197 105.217 13.8197H115.943C116.912 13.8197 117.315 15.0593 116.531 15.6287L107.853 21.9336C107.503 22.1883 107.356 22.6396 107.49 23.0517L110.805 33.2533C111.104 34.1746 110.05 34.9407 109.266 34.3713L100.588 28.0664C100.237 27.8117 99.7627 27.8117 99.4122 28.0664L90.7342 34.3713C89.9505 34.9407 88.896 34.1746 89.1954 33.2533L92.5101 23.0517C92.6439 22.6396 92.4973 22.1883 92.1468 21.9336L83.4688 15.6287C82.6851 15.0593 83.0878 13.8197 84.0566 13.8197H94.7832C95.2164 13.8197 95.6004 13.5407 95.7342 13.1287L99.0489 2.92705Z" fill="#F5BE32"/>
<path d="M139.049 2.92705C139.348 2.00574 140.652 2.00574 140.951 2.92705L144.266 13.1287C144.4 13.5407 144.784 13.8197 145.217 13.8197H155.943C156.912 13.8197 157.315 15.0593 156.531 15.6287L147.853 21.9336C147.503 22.1883 147.356 22.6396 147.49 23.0517L150.805 33.2533C151.104 34.1746 150.05 34.9407 149.266 34.3713L140.588 28.0664C140.237 27.8117 139.763 27.8117 139.412 28.0664L130.734 34.3713C129.95 34.9407 128.896 34.1746 129.195 33.2533L132.51 23.0517C132.644 22.6396 132.497 22.1883 132.147 21.9336L123.469 15.6287C122.685 15.0593 123.088 13.8197 124.057 13.8197H134.783C135.216 13.8197 135.6 13.5407 135.734 13.1287L139.049 2.92705Z" fill="#F5BE32"/>
<path d="M179.525 3.08203C179.674 2.62138 180.326 2.62138 180.476 3.08203L183.79 13.2832C183.991 13.9012 184.567 14.3193 185.217 14.3193H195.944C196.428 14.3196 196.629 14.94 196.238 15.2246L187.559 21.5293C187.034 21.9113 186.813 22.5882 187.014 23.2061L190.329 33.4082C190.479 33.8686 189.952 34.2512 189.56 33.9668L180.881 27.6621C180.356 27.2803 179.644 27.2802 179.119 27.6621L170.441 33.9668C170.049 34.2514 169.522 33.8687 169.671 33.4082L172.986 23.2061C173.186 22.5881 172.966 21.9113 172.441 21.5293L163.763 15.2246C163.371 14.9399 163.573 14.3193 164.057 14.3193H174.784C175.433 14.3192 176.009 13.901 176.209 13.2832L179.525 3.08203Z" stroke="#F5BE32"/>
</svg>
