<svg width="197" height="40" viewBox="0 0 197 40" fill="none" xmlns="http://www.w3.org/2000/svg">
<path d="M19.0489 2.92705C19.3483 2.00574 20.6517 2.00574 20.9511 2.92705L24.2658 13.1287C24.3996 13.5407 24.7836 13.8197 25.2168 13.8197H35.9434C36.9122 13.8197 37.3149 15.0593 36.5312 15.6287L27.8532 21.9336C27.5027 22.1883 27.3561 22.6396 27.4899 23.0517L30.8046 33.2533C31.104 34.1746 30.0495 34.9407 29.2658 34.3713L20.5878 28.0664C20.2373 27.8117 19.7627 27.8117 19.4122 28.0664L10.7342 34.3713C9.95048 34.9407 8.896 34.1746 9.19535 33.2533L12.5101 23.0517C12.6439 22.6396 12.4973 22.1883 12.1468 21.9336L3.46877 15.6287C2.68505 15.0593 3.08783 13.8197 4.05655 13.8197H14.7832C15.2164 13.8197 15.6004 13.5407 15.7342 13.1287L19.0489 2.92705Z" fill="#F5BE32"/>
<path d="M59.0489 2.92705C59.3483 2.00574 60.6517 2.00574 60.9511 2.92705L64.2658 13.1287C64.3996 13.5407 64.7836 13.8197 65.2168 13.8197H75.9434C76.9122 13.8197 77.3149 15.0593 76.5312 15.6287L67.8532 21.9336C67.5027 22.1883 67.3561 22.6396 67.4899 23.0517L70.8046 33.2533C71.104 34.1746 70.0495 34.9407 69.2658 34.3713L60.5878 28.0664C60.2373 27.8117 59.7627 27.8117 59.4122 28.0664L50.7342 34.3713C49.9505 34.9407 48.896 34.1746 49.1954 33.2533L52.5101 23.0517C52.6439 22.6396 52.4973 22.1883 52.1468 21.9336L43.4688 15.6287C42.6851 15.0593 43.0878 13.8197 44.0566 13.8197H54.7832C55.2164 13.8197 55.6004 13.5407 55.7342 13.1287L59.0489 2.92705Z" fill="#F5BE32"/>
<path d="M98.0489 2.92705C98.3483 2.00574 99.6517 2.00574 99.9511 2.92705L103.266 13.1287C103.4 13.5407 103.784 13.8197 104.217 13.8197H114.943C115.912 13.8197 116.315 15.0593 115.531 15.6287L106.853 21.9336C106.503 22.1883 106.356 22.6396 106.49 23.0517L109.805 33.2533C110.104 34.1746 109.05 34.9407 108.266 34.3713L99.5878 28.0664C99.2373 27.8117 98.7627 27.8117 98.4122 28.0664L89.7342 34.3713C88.9505 34.9407 87.896 34.1746 88.1954 33.2533L91.5101 23.0517C91.6439 22.6396 91.4973 22.1883 91.1468 21.9336L82.4688 15.6287C81.6851 15.0593 82.0878 13.8197 83.0566 13.8197H93.7832C94.2164 13.8197 94.6004 13.5407 94.7342 13.1287L98.0489 2.92705Z" fill="#F5BE32"/>
<path d="M137.049 2.92705C137.348 2.00574 138.652 2.00574 138.951 2.92705L142.266 13.1287C142.4 13.5407 142.784 13.8197 143.217 13.8197H153.943C154.912 13.8197 155.315 15.0593 154.531 15.6287L145.853 21.9336C145.503 22.1883 145.356 22.6396 145.49 23.0517L148.805 33.2533C149.104 34.1746 148.05 34.9407 147.266 34.3713L138.588 28.0664C138.237 27.8117 137.763 27.8117 137.412 28.0664L128.734 34.3713C127.95 34.9407 126.896 34.1746 127.195 33.2533L130.51 23.0517C130.644 22.6396 130.497 22.1883 130.147 21.9336L121.469 15.6287C120.685 15.0593 121.088 13.8197 122.057 13.8197H132.783C133.216 13.8197 133.6 13.5407 133.734 13.1287L137.049 2.92705Z" fill="#F5BE32"/>
<path d="M176.049 2.92705C176.348 2.00574 177.652 2.00574 177.951 2.92705L181.266 13.1287C181.4 13.5407 181.784 13.8197 182.217 13.8197H192.943C193.912 13.8197 194.315 15.0593 193.531 15.6287L184.853 21.9336C184.503 22.1883 184.356 22.6396 184.49 23.0517L187.805 33.2533C188.104 34.1746 187.05 34.9407 186.266 34.3713L177.588 28.0664C177.237 27.8117 176.763 27.8117 176.412 28.0664L167.734 34.3713C166.95 34.9407 165.896 34.1746 166.195 33.2533L169.51 23.0517C169.644 22.6396 169.497 22.1883 169.147 21.9336L160.469 15.6287C159.685 15.0593 160.088 13.8197 161.057 13.8197H171.783C172.216 13.8197 172.6 13.5407 172.734 13.1287L176.049 2.92705Z" fill="#F5BE32"/>
</svg>
